<svg xmlns="http://www.w3.org/2000/svg" xmlns:xlink="http://www.w3.org/1999/xlink" viewBox="0 0 1920 1080"><defs><style>.cls-1{fill:none;}.cls-2{fill:#c8d5f7;}.cls-3{clip-path:url(#clip-path);}.cls-4{fill:url(#linear-gradient);}.cls-5{fill:url(#linear-gradient-2);}.cls-6{fill:url(#linear-gradient-3);}.cls-7{fill:url(#linear-gradient-4);}.cls-8{fill:url(#linear-gradient-5);}</style><clipPath id="clip-path"><rect class="cls-1" width="1920" height="1080"/></clipPath><linearGradient id="linear-gradient" x1="1440.759" y1="906.404" x2="1501.311" y2="867.433" gradientUnits="userSpaceOnUse"><stop offset="0" stop-color="#102770"/><stop offset="1" stop-color="#5f78d0"/></linearGradient><linearGradient id="linear-gradient-2" x1="396.034" y1="198.899" x2="358.46" y2="231.888" xlink:href="#linear-gradient"/><linearGradient id="linear-gradient-3" x1="1946.761" y1="968.107" x2="1850.649" y2="1046.461" xlink:href="#linear-gradient"/><linearGradient id="linear-gradient-4" x1="-134.999" y1="27.5" x2="677.002" y2="27.5" xlink:href="#linear-gradient"/><linearGradient id="linear-gradient-5" x1="1185.001" y1="1219.991" x2="2111.002" y2="1219.991" gradientUnits="userSpaceOnUse"><stop offset="0" stop-color="#5f78d0"/><stop offset="0.85" stop-color="#102770"/></linearGradient></defs><title>background</title><g id="BACKGROUND"><rect class="cls-2" width="1920" height="1080"/></g><g id="FIGURES"><g class="cls-3"><circle class="cls-4" cx="1488" cy="876" r="36"/><circle class="cls-5" cx="372" cy="220" r="25"/><circle class="cls-6" cx="1915" cy="994" r="62"/><path class="cls-7" d="M676.213-13.279c10.06,106.687-77.449,198.3-184.481,193.065A175.476,175.476,0,0,1,418.2,159.675c-32.9-17.375-73.409-8-95.913,21.627a254.091,254.091,0,0,1-197.1,100.636c-145.675,3.2-264.947-117.528-260.046-263.155C-130.259-117.741-18.142-227,119.5-227A254.5,254.5,0,0,1,347.78-85.141a.036.036,0,0,0,.064,0A176.4,176.4,0,0,1,500.5-173,176.518,176.518,0,0,1,676.213-13.279Z"/><path class="cls-8" d="M2069.15,1465.17c-76.03,113.58-229.74,144.01-343.31,67.98a247.379,247.379,0,0,1-109.27-222.667.034.034,0,0,0-.063-.02,231.884,231.884,0,0,1-194.67,113.488c-132.678,2.714-241.2-107.328-236.7-239.957C1189.355,1059.571,1291.55,960,1417,960a231.8,231.8,0,0,1,70.7,10.974,74.18,74.18,0,0,0,88.209-36.072,131.789,131.789,0,0,1,247.463,74.95,64.47,64.47,0,0,0,59.16,70.866,246.339,246.339,0,0,1,118.633,41.132C2114.75,1197.88,2145.18,1351.59,2069.15,1465.17Z"/></g></g></svg>